<?xml version="1.0" encoding="iso-8859-1"?>
<!-- Generator: Adobe Illustrator 19.0.0, SVG Export Plug-In . SVG Version: 6.00 Build 0)  -->
<svg version="1.1" id="Layer_1" xmlns="http://www.w3.org/2000/svg" xmlns:xlink="http://www.w3.org/1999/xlink" x="0px" y="0px"
	 viewBox="0 0 512 512" style="enable-background:new 0 0 512 512;" xml:space="preserve">
<path style="fill:#4D4D4D;" d="M486.878,12.432c8.282,8.294,12.43,19.163,12.43,30.02c0,10.705-4.019,21.388-12.057,29.635
	l-39.424-23.9l-20.604-36.127C443.823-4.145,470.429-4.017,486.878,12.432z"/>
<path style="fill:#B27214;" d="M487.25,72.086c-0.116,0.128-0.245,0.256-0.373,0.384L363.786,195.562l-19.687-19.675l-40.352-40.352
	L426.839,12.432c0.128-0.128,0.256-0.256,0.384-0.373l39.024,39.024L487.25,72.086z"/>
<path style="fill:#995C0D;" d="M487.25,72.086c-0.116,0.128-0.245,0.256-0.373,0.384L362.816,196.533l-19.687-19.675l-1.328-1.328
	L465.863,51.456c0.128-0.128,0.256-0.256,0.384-0.373L487.25,72.086z"/>
<path style="fill:#F95428;" d="M58.706,465.998c10.519,10.519,10.519,27.585,0,38.104C53.441,509.367,46.545,512,39.649,512
	c-6.908,0-13.804-2.633-19.058-7.898c-10.531-10.519-10.531-27.585,0-38.104l19.058-19.058L58.706,465.998z"/>
<path style="fill:#E54728;" d="M34.57,504.102c-10.531-10.519-10.531-27.585,0-38.104l5.079-5.079c3.86-3.86,3.86-10.118,0-13.979
	l0,0l-19.058,19.058c-10.531,10.519-10.531,27.585,0,38.104c5.254,5.265,12.15,7.898,19.058,7.898c2.352,0,4.698-0.331,6.986-0.942
	C42.212,509.874,38.032,507.571,34.57,504.102z"/>
<path style="fill:#CCCCCC;" d="M373.375,231.567l-20.392,20.392l-33.514,33.526l-0.012-0.012
	c-48.099,47.936-40.865,47.338-113.648,47.338c-55.663,0-31.713,55.915-100.182,55.915c-26.199,0-30.785-24.288-30.785-24.288
	l195.385-195.397l20.31-20.31l1.328,1.328L373.375,231.567z"/>
<path style="fill:#B3B3B3;" d="M368.71,236.233l-15.726,15.726l-81.508-81.508c-0.454-0.454-0.862-0.92-1.246-1.41l15.645-15.645
	l1.328,1.328L368.71,236.233z"/>
<g>
	
		<line style="fill:none;stroke:#333333;stroke-width:15;stroke-linecap:round;stroke-linejoin:round;stroke-miterlimit:10;" x1="423.081" y1="76.231" x2="423.081" y2="76.231"/>
	
		<line style="fill:none;stroke:#333333;stroke-width:15;stroke-linecap:round;stroke-linejoin:round;stroke-miterlimit:10;" x1="374.155" y1="125.157" x2="374.155" y2="125.157"/>
</g>
<path style="fill:#F95428;" d="M319.47,285.485l-81.077,81.065c-55.275,55.263-137.82,72.969-210.882,45.221l55.601-55.601
	c0,0-3.681,22.518,22.518,22.518c47.377,0,23.822-55.915,100.182-55.915c72.783,0,110.293-34.108,113.648-37.3L319.47,285.485z"/>
<path style="fill:#4D4D4D;" d="M404.997,228.439c6.081,6.081,6.081,15.948,0,22.04c-6.092,6.081-15.959,6.081-22.04,0
	l-14.247-14.247l-81.508-81.508c-6.081-6.081-6.081-15.948,0-22.028c3.052-3.052,7.036-4.566,11.02-4.566
	c3.996,0,7.98,1.514,11.02,4.566l58.711,58.699L404.997,228.439z"/>
<g>
</g>
<g>
</g>
<g>
</g>
<g>
</g>
<g>
</g>
<g>
</g>
<g>
</g>
<g>
</g>
<g>
</g>
<g>
</g>
<g>
</g>
<g>
</g>
<g>
</g>
<g>
</g>
<g>
</g>
</svg>
